<svg version="1.1" xmlns="http://www.w3.org/2000/svg" x="0px" y="0px" width="1em" height="1em" viewBox="0 0 21.6 44.6" enable-background="new 0 0 21.6 44.6">
<style type="text/css">.st0{fill:#D21E23;}</style>
<path d="M16.8,13.4l0.3,0.3l-6.5,24c-0.5,1.9-0.6,3.3,0.6,3.3c1.7,0,4.3-4.2,5.4-6.3l1.4,0.8C16,40,12.6,44,8.3,44c-3.2,0-4-2.4-3.1-5.8l5-18.7c0.5-2.1,0.4-2.6-1.3-2.7l-3.4-0.3l0.4-1.4L16.8,13.4z"/>
<path class="st0" d="M19.7,4c0,2.4-1.5,4-3.8,4c-1.8,0-3.3-1.1-3.3-3.3c0-1.9,1.3-3.9,3.9-3.9C18.2,0.7,19.7,1.7,19.7,4"/>
</svg>
